<svg id="SvgjsSvg1029" width="288" height="288" xmlns="http://www.w3.org/2000/svg" version="1.1" xmlns:xlink="http://www.w3.org/1999/xlink" xmlns:svgjs="http://svgjs.com/svgjs"><defs id="SvgjsDefs1030"></defs><g id="SvgjsG1031"><svg xmlns="http://www.w3.org/2000/svg" width="288" height="288" enable-background="new 0 0 512 512" viewBox="0 0 512 512"><path d="M301.213 58.168c0-14.278-11.616-25.894-25.894-25.894h-38.639c-14.278 0-25.894 11.616-25.894 25.894v38.713h90.427zM259.792 194.274l150.095 39.218v-96.789c0-5.416-4.406-9.822-9.822-9.822h-288.129c-5.416 0-9.822 4.406-9.822 9.822v96.789l150.095-39.218c2.485-.649 5.097-.649 7.583 0z" fill="#ffa705" class="color000 svgShape"></path><path d="m497 449.725c-16.555 0-24.023-3.719-33.479-8.428-4.439-2.21-9.12-4.541-14.706-6.526-7.755-2.757-17.259-4.848-30.282-5.031l54.92-138.253c1.216-3.283.244-6.016-.449-7.359-.698-1.354-2.381-3.759-5.814-4.656l-211.19-55.181-211.189 55.181c-3.434.897-5.117 3.302-5.814 4.656-.693 1.344-1.666 4.08-.447 7.364l54.797 138.25c-13.018.196-22.512 2.3-30.262 5.067-5.539 1.977-10.19 4.292-14.601 6.489-9.457 4.708-16.926 8.428-33.483 8.428-8.284 0-15 6.716-15 15s6.716 15 15 15c23.612 0 35.96-6.148 46.854-11.572 4.245-2.113 8.094-4.023 12.539-5.491 5.459-1.803 11.818-2.936 20.944-2.936 2.083 0 4.021.059 5.839.172 12.628.78 19.377 4.14 27.644 8.256 10.894 5.424 23.242 11.572 46.854 11.572 23.611 0 35.958-6.148 46.853-11.572 9.456-4.708 16.925-8.428 33.48-8.428s24.023 3.719 33.479 8.428c10.894 5.424 23.241 11.572 46.852 11.572s35.958-6.148 46.852-11.572c8.293-4.129 15.06-7.496 27.764-8.263 1.782-.107 3.679-.165 5.716-.165 9.026 0 15.344 1.111 20.762 2.88 4.52 1.475 8.417 3.407 12.717 5.548 10.894 5.424 23.241 11.572 46.852 11.572 8.284 0 15-6.716 15-15s-6.718-15.002-15.002-15.002zm-379.677-148.67 134.885-35.244c2.486-.649 5.098-.649 7.584 0l134.885 35.244c8.015 2.094 12.815 10.29 10.721 18.305-1.762 6.744-7.844 11.212-14.502 11.212-1.255 0-2.531-.159-3.802-.491l-131.094-34.253-131.093 34.253c-8.015 2.094-16.211-2.706-18.305-10.721s2.706-16.211 10.721-18.305z" fill="#ffa705" class="color000 svgShape"></path></svg></g></svg>