<svg id="SvgjsSvg1073" width="288" height="288" xmlns="http://www.w3.org/2000/svg" version="1.1" xmlns:xlink="http://www.w3.org/1999/xlink" xmlns:svgjs="http://svgjs.com/svgjs"><defs id="SvgjsDefs1074"></defs><g id="SvgjsG1075"><svg xmlns="http://www.w3.org/2000/svg" width="288" height="288" enable-background="new 0 0 512 512" viewBox="0 0 512 512"><path d="M274.892 208.821c-10.418 10.419-27.37 10.417-37.788 0-2.93-2.929-7.678-2.929-10.607 0s-2.929 7.678 0 10.606c8.134 8.133 18.817 12.2 29.502 12.2 10.684 0 21.367-4.067 29.501-12.2 2.929-2.929 2.929-7.678 0-10.606-2.931-2.929-7.679-2.929-10.608 0zM310.316 161.863c-5.474-5.473-12.751-8.488-20.49-8.488-7.74 0-15.018 3.015-20.491 8.488-2.929 2.929-2.929 7.678 0 10.606 2.93 2.929 7.678 2.929 10.607 0 5.451-5.451 14.319-5.449 19.767 0 1.465 1.464 3.385 2.197 5.304 2.197s3.839-.732 5.304-2.197c2.928-2.928 2.928-7.677-.001-10.606zM242.658 172.47c2.93-2.929 2.93-7.678.001-10.607-5.473-5.473-12.75-8.488-20.49-8.488-7.739 0-15.017 3.015-20.49 8.488-2.929 2.929-2.929 7.678 0 10.606 1.465 1.464 3.385 2.197 5.304 2.197s3.839-.732 5.304-2.197c2.64-2.64 6.149-4.094 9.883-4.094s7.243 1.454 9.883 4.094c2.927 2.928 7.676 2.93 10.605.001z" fill="#ca0425" class="color000 svgShape"></path><path d="m512 290.819v-12.827c0-20.331-16.54-36.871-36.87-36.871h-139.31c4.055-8.475 6.731-17.52 7.973-26.856h1.818c8.974 0 17.406-3.49 23.743-9.827 6.336-6.337 9.826-14.761 9.826-23.722 0-6.458-1.838-12.493-5.011-17.618v-62.818c0-18.895-5.279-37.293-15.268-53.207-2.203-3.508-6.831-4.566-10.34-2.365-3.508 2.202-4.567 6.832-2.365 10.34 8.487 13.521 12.973 29.162 12.973 45.232v49.737c-4.15-1.84-8.735-2.871-13.559-2.871h-1.01v-26.187c0-2.396-1.146-4.648-3.081-6.06-1.937-1.412-4.428-1.814-6.713-1.081-39.084 12.553-76.826 9.931-112.181-7.8-26.645-13.363-41.908-30.777-42.051-30.942-2.045-2.376-5.352-3.232-8.294-2.139-2.939 1.091-4.891 3.896-4.891 7.031v67.176h-1.012c-4.749 0-9.343.988-13.558 2.849v-49.716c0-47.023 38.252-85.28 85.27-85.28h35.811c19.77 0 39.03 6.916 54.233 19.473 3.193 2.638 7.922 2.187 10.559-1.007 2.639-3.193 2.188-7.921-1.006-10.559-17.885-14.768-40.539-22.903-63.786-22.903h-35.81c-55.289 0-100.27 44.985-100.27 100.28v62.781c-3.254 5.246-5.001 11.31-5.001 17.655 0 18.499 15.055 33.549 33.559 33.549h1.698c1.153 9.337 3.769 18.385 7.777 26.856h-138.983c-20.33 0-36.87 16.54-36.87 36.871v12.827c0 17.761 12.624 32.627 29.37 36.102v99.278c-16.746 3.475-29.37 18.341-29.37 36.102v12.827c0 20.331 16.54 36.871 36.87 36.871h438.26c20.33 0 36.87-16.54 36.87-36.871v-12.827c0-17.761-12.624-32.627-29.37-36.102v-99.279c16.746-3.474 29.37-18.341 29.37-36.102zm-166.389-128.672c10.239 0 18.569 8.33 18.569 18.569 0 4.954-1.93 9.612-5.434 13.116-3.503 3.503-8.168 5.433-13.136 5.433h-1.01v-37.118zm-197.792 18.57c0-4.975 1.928-9.638 5.434-13.136 3.503-3.504 8.164-5.433 13.125-5.433h1.012v37.118h-1.012c-10.233-.001-18.559-8.321-18.559-18.549zm34.571 22.584v-105.866c7.772 6.515 18.855 14.574 32.927 21.7 17.569 8.896 42.147 17.362 72.066 17.361 13.097 0 27.217-1.623 42.217-5.542v71.327c0 13.795-3.738 27.139-10.823 38.841h-125.922c-6.851-11.402-10.465-24.393-10.465-37.821zm-167.39 87.518v-12.827c0-12.06 9.811-21.871 21.87-21.871h438.26c12.06 0 21.87 9.811 21.87 21.871v12.827c0 12.06-9.811 21.871-21.87 21.871h-438.26c-12.059 0-21.87-9.811-21.87-21.871zm452.63 134.612h-39.783v-97.741h39.783zm-321.19-45.15c-4.143 0-7.5 3.358-7.5 7.5v37.651h-39.787v-97.742h39.787v30.091c0 4.142 3.357 7.5 7.5 7.5s7.5-3.358 7.5-7.5v-30.091h39.777v97.742h-39.777v-37.651c0-4.143-3.357-7.5-7.5-7.5zm-102.07-52.591h39.783v97.742h-39.783zm164.348 0h39.782v97.742h-39.782zm54.782 0h39.782v97.742h-39.782zm54.782 0h39.782v97.742h-39.782zm54.782 0h39.782v97.742h-39.782zm123.936 134.612v12.827c0 12.06-9.811 21.871-21.87 21.871h-438.26c-12.06 0-21.87-9.811-21.87-21.871v-12.827c0-12.06 9.811-21.871 21.87-21.871h438.26c12.059 0 21.87 9.811 21.87 21.871z" fill="#ca0425" class="color000 svgShape"></path><path d="M432.163 225.227c4.143 0 7.5-3.358 7.5-7.5s-3.357-7.5-7.5-7.5c-10.16 0-18.427-8.266-18.427-18.427s8.267-18.427 18.427-18.427c18.431 0 33.426-14.995 33.426-33.426 0-18.432-14.995-33.427-33.426-33.427-4.143 0-7.5 3.358-7.5 7.5s3.357 7.5 7.5 7.5c10.16 0 18.426 8.266 18.426 18.427 0 10.16-8.266 18.426-18.426 18.426-18.432 0-33.427 14.995-33.427 33.427s14.995 33.427 33.427 33.427zM79.837 225.227c4.143 0 7.5-3.358 7.5-7.5s-3.357-7.5-7.5-7.5c-10.16 0-18.426-8.266-18.426-18.427s8.266-18.427 18.426-18.427c18.432 0 33.427-14.995 33.427-33.426 0-18.432-14.995-33.427-33.427-33.427-4.143 0-7.5 3.358-7.5 7.5s3.357 7.5 7.5 7.5c10.16 0 18.427 8.266 18.427 18.427 0 10.16-8.267 18.426-18.427 18.426-18.431 0-33.426 14.995-33.426 33.427s14.995 33.427 33.426 33.427z" fill="#ca0425" class="color000 svgShape"></path></svg></g></svg>