<svg id="SvgjsSvg1011" width="288" height="288" xmlns="http://www.w3.org/2000/svg" version="1.1" xmlns:xlink="http://www.w3.org/1999/xlink" xmlns:svgjs="http://svgjs.com/svgjs"><defs id="SvgjsDefs1012"></defs><g id="SvgjsG1013"><svg xmlns="http://www.w3.org/2000/svg" enable-background="new 0 0 512.004 512.004" viewBox="0 0 512.004 512.004" width="288" height="288"><path d="M352 426.669H10.667C4.771 426.669 0 431.44 0 437.335c0 5.896 4.771 10.667 10.667 10.667H352c5.896 0 10.667-4.771 10.667-10.667C362.667 431.44 357.896 426.669 352 426.669zM510.388 238.135c-3.271-12.156-11.063-22.313-21.938-28.594-4.625-2.677-9.646-4.531-14.917-5.521l-366.771-68.375-33.25-65.771c-2.396-4.74-7.854-7.021-12.896-5.302l-32 10.667c-4.729 1.573-7.729 6.219-7.229 11.177l10.667 106.667c.438 4.427 3.583 8.115 7.896 9.25l183.563 48.313-92 82.781c-3.042 2.74-4.229 6.979-3.104 10.906 1.146 3.927 4.438 6.854 8.479 7.542l63.25 10.667c.583.094 1.188.146 1.771.146 1.833 0 3.667-.479 5.271-1.396l146.646-83.375 100.958 19.677c19.938 4.094 40.083-5.01 50.875-23.729C511.95 262.978 513.638 250.281 510.388 238.135zM486.554 264.343c-5.563 9.625-16.542 14.615-27.583 12.333l-104.938-20.458c-2.5-.479-5.063-.052-7.313 1.198l-146.792 83.458L162.2 334.51l90.271-81.229c2.896-2.625 4.146-6.625 3.229-10.438-.938-3.813-3.875-6.813-7.667-7.802l-195.5-51.448L43.45 92.781l15.167-5.063 31.479 62.26c1.5 2.969 4.292 5.063 7.563 5.677l371.958 69.344c2.875.531 5.625 1.552 8.146 3.01 5.958 3.438 10.229 9 12 15.646C491.554 250.301 490.638 257.239 486.554 264.343z" fill="#0e8a6f" class="color000 svgShape"></path></svg></g></svg>