<svg id="SvgjsSvg1001" width="288" height="288" xmlns="http://www.w3.org/2000/svg" version="1.1" xmlns:xlink="http://www.w3.org/1999/xlink" xmlns:svgjs="http://svgjs.com/svgjs"><defs id="SvgjsDefs1002"></defs><g id="SvgjsG1008" transform="matrix(1,0,0,1,0,0)"><svg xmlns="http://www.w3.org/2000/svg" enable-background="new 0 0 512 512" viewBox="0 0 512 512" width="288" height="288"><path d="M464.917 64c-5.396 0-10.667.906-15.667 2.677L107.542 187.281c-6.292 2.208-13.375 1.344-18.938-2.365l-50.688-33.792c-4.25-2.844-9.854-2.26-13.458 1.333L3.125 173.792c-3.75 3.75-4.167 9.698-1 13.938l64 85.333c2.667 3.521 7.208 5.083 11.396 3.885l173.208-48.115-36.917 120.031c-1.188 3.813-.125 7.969 2.729 10.76 2.021 1.979 4.708 3.042 7.458 3.042 1.125 0 2.271-.177 3.375-.552l64-21.333c2.479-.823 4.583-2.542 5.896-4.823l83.292-145.792 99.229-33.083c19.271-6.417 32.208-24.365 32.208-45.99C512 85.125 490.875 64 464.917 64zM473.042 136.854l-103.083 34.365c-2.479.823-4.583 2.542-5.896 4.823l-83.292 145.792-40.479 13.49 36.563-118.854c1.146-3.729.167-7.781-2.542-10.573-2.042-2.094-4.813-3.229-7.646-3.229-.958 0-1.917.125-2.854.385L78.833 254.438 24.75 182.333l8.604-8.604 43.417 28.938c11.125 7.427 25.292 9.177 37.854 4.74L456.354 86.792c2.729-.969 5.604-1.458 8.563-1.458 14.208 0 25.75 11.552 25.75 27.083C490.667 123.521 483.583 133.333 473.042 136.854zM352 426.667H10.667C4.771 426.667 0 431.438 0 437.333 0 443.229 4.771 448 10.667 448H352c5.896 0 10.667-4.771 10.667-10.667C362.667 431.438 357.896 426.667 352 426.667z" fill="#0e8a6f" class="color000 svgShape"></path></svg></g></svg>